<?xml version="1.0"?>
<svg width="36" height="36" xmlns="http://www.w3.org/2000/svg" xmlns:svg="http://www.w3.org/2000/svg" xmlns:xlink="http://www.w3.org/1999/xlink" enable-background="new 0 0 138 34.942" version="1.1" xml:space="preserve">
<style type="text/css">.st0{fill:#dde7ec;}</style>
<g transform="translate(-44 1) scale(0.9)">
  <path class="st0" d="m77.1,0.48c0,-0.26 -0.15,-0.45 -0.45,-0.45l-0.07,0l-5.26,-0.01c-0.34,0.04 -0.45,0.18 -0.49,0.48l-3.34,27.42c-0.53,2.82 -1.69,2.84 -3.64,2.95c-0.79,0.04 -1.5,0.04 -2.03,0.08c-0.56,0 -0.82,0.2 -0.9,0.84l-0.26,2.18l0,0.18c0,0.53 0.34,0.57 0.67,0.6c0.68,0.08 1.02,0.19 3.61,0.19c4.39,0 8.03,-1.35 8.75,-7.17l3.41,-27.29z" id="svg_j"/>
</g>
<g transform="translate(1 0) scale(0.96)">
  <path class="st0" d="m7,27.56c0,0.26 0.26,0.43 0.56,0.43l4.99,0c0.34,0 0.64,-0.2 0.68,-0.5l3.22,-22.94l0,-0.07c0,-0.23 -0.15,-0.4 -0.41,-0.4l-0.12,0l-5.34,0c-0.34,0.04 -0.4,0.17 -0.44,0.43l-3.14,23.05z" id="svg_i"/>
</g>
</svg>